<?xml version="1.0" encoding="utf-8"?>
<!-- Generator: Adobe Illustrator 16.0.0, SVG Export Plug-In . SVG Version: 6.00 Build 0)  -->
<!DOCTYPE svg PUBLIC "-//W3C//DTD SVG 1.1//EN" "http://www.w3.org/Graphics/SVG/1.1/DTD/svg11.dtd">
<svg version="1.1" id="Layer_1" xmlns="http://www.w3.org/2000/svg" xmlns:xlink="http://www.w3.org/1999/xlink" x="0px" y="0px"
	 width="792px" height="612px" viewBox="0 0 792 612" enable-background="new 0 0 792 612" xml:space="preserve">
<path fill="#63222B" d="M184.687,243.46h23.654v119.307h-23.654V243.46z"/>
<path fill="#63222B" d="M226.872,245.161h24.301v0.648h0.323v0.324h0.323v0.65h0.322v0.646h0.328v0.651h0.324v0.649h0.322v0.641
	h0.324v0.653h0.324v0.645h0.323v0.651h0.323v0.646h0.324v0.649h0.322v0.649h0.322v0.647h0.326v0.649h0.323v0.646h0.328v0.649h0.323
	v0.646h0.32v0.648h0.326v0.647h0.326v0.324h0.32v0.646h0.326v0.652h0.326v0.647h0.322v0.647h0.323v0.646h0.325v0.649h0.322v0.646
	h0.323v0.648h0.324v0.648h0.327v0.646h0.323v0.649h0.32v0.647h0.324v0.649h0.325v0.646h0.327v0.648h0.322v0.646h0.323v0.652h0.325
	v0.648h0.32v0.646h0.328v0.323h0.32v0.646h0.325v0.65h0.326v0.646h0.321v0.651h0.323v0.645h0.328v0.651h0.324v0.646h0.324v0.649
	h0.322v0.645h0.323v0.648h0.325v0.649h0.323v0.646h0.324v0.652h0.323v0.643h0.323v0.652h0.326v0.646h0.322v0.649h0.325v0.646h0.319
	v0.322h0.327v0.65h0.325v0.647h0.321v0.647h0.328v0.648h0.318v0.646h0.331v0.648h0.318v0.65h0.326v0.647h0.323v0.648h0.325v0.646
	h0.325v0.646h0.323v0.652h0.322v0.645h0.326v0.65h0.322v0.646h0.323v0.651h0.33v0.646h0.318v0.649h0.326v0.322h0.323v0.648h0.325
	v0.648h0.323v0.648h0.319v0.648h0.326v0.646h0.325v0.648h0.322v0.647h0.324v0.647h0.325v0.651h0.322v0.648h0.326v0.644h0.325v0.648
	h0.322v0.648h0.323v0.647h0.323v0.649h0.329v0.647h0.318v0.648h0.325v0.648h0.325v0.326h0.32v0.646h0.329v0.649h0.322v0.646h0.325
	v0.648h0.322v0.652h0.326v0.648h0.322v-65.451h21.382v117.606h-21.059v-0.323h-0.323v-0.646h-0.322v-0.651h-0.326V360.5h-0.322
	v-0.65h-0.325v-0.646h-0.322v-0.323h-0.329v-0.645h-0.32v-0.652h-0.325v-0.646h-0.325v-0.648h-0.318v-0.651h-0.329v-0.647h-0.323
	v-0.646h-0.323v-0.646h-0.322v-0.647h-0.325v-0.647h-0.326v-0.648h-0.322v-0.646h-0.325v-0.652h-0.324v-0.649h-0.322v-0.647h-0.325
	v-0.648h-0.326v-0.648h-0.319v-0.648h-0.323v-0.321h-0.325v-0.65h-0.323v-0.646h-0.326v-0.646H275.8v-0.648h-0.33v-0.648h-0.323
	v-0.649h-0.322v-0.651h-0.326v-0.646h-0.322v-0.645h-0.323v-0.652h-0.325v-0.646h-0.325v-0.649h-0.323v-0.646h-0.326v-0.65h-0.318
	v-0.646h-0.331v-0.65h-0.318v-0.646h-0.328v-0.648h-0.321v-0.65h-0.325v-0.321h-0.327v-0.648h-0.319v-0.648h-0.325v-0.645h-0.322
	v-0.647h-0.326v-0.65h-0.323v-0.648h-0.323v-0.648h-0.324v-0.646h-0.323v-0.648h-0.325v-0.647h-0.323v-0.648h-0.322v-0.648h-0.324
	v-0.646h-0.324v-0.65h-0.328v-0.646h-0.323v-0.651h-0.321v-0.645h-0.326v-0.649h-0.325v-0.324h-0.32v-0.647h-0.328v-0.646h-0.32
	v-0.653h-0.325v-0.646h-0.323v-0.648h-0.322v-0.646h-0.327v-0.652h-0.325v-0.643h-0.324v-0.65h-0.32v-0.647h-0.323v-0.648h-0.327
	v-0.646h-0.324v-0.647h-0.323v-0.65h-0.322v-0.648h-0.325v-0.644h-0.323v-0.649h-0.322v-0.646H258.3v-0.331h-0.326v-0.646h-0.32
	v-0.65h-0.326v-0.643h-0.326v-0.651h-0.32v-0.645h-0.323v-0.65h-0.328v-0.648h-0.323v-0.648h-0.326v-0.647h-0.322v-0.649h-0.322
	v-0.647h-0.324v-0.648h-0.323v-0.648h-0.323v-0.644h-0.324v-0.648h-0.324v-0.651h-0.322v-0.647h-0.324v-0.647h-0.328v-0.324h-0.322
	v-0.644h-0.323V297h-0.323v-0.647h-0.326v-0.648h-0.324v-0.646H250.2v-0.648h-0.324v-0.649h-0.325v-0.646h-0.322v-0.651h-0.323
	v-0.646h-0.323v70.95h-21.71V245.161z M226.872,372.813h83.183v22.355h-83.183V372.813z"/>
<path fill="#1E252C" d="M313.387,372.813h105.777v22.355H313.387V372.813z M338.493,243.622h69.981v24.299h-46.329v21.304h36.937
	v23.326h-36.614v0.326h-0.322v25.595h47.626v24.296h-71.278V243.622z"/>
<path fill="#1E252C" d="M428.655,243.46h45.686v0.324h2.914v0.322h1.941v0.326h1.625v0.326h0.97v0.323h1.298v0.32h0.965v0.329h0.653
	v0.322h0.972v0.404h0.646v0.325h0.651v0.323h0.971v0.322h0.323v0.326h0.648v0.325h0.65v0.323h0.644v0.326h0.329v0.322h0.646v0.318
	h0.322v0.328h0.324v0.325h0.648v0.323h0.323v0.321h0.32v0.327h0.326v0.324h0.322v0.322h0.646v0.407h0.33v0.321h0.322v0.325h0.322
	v0.325h0.327v0.644h0.321v0.326h0.324v0.325h0.324v0.324h0.322v0.325h0.323v0.646h0.327v0.322h0.318v0.323h0.329v0.649h0.322v0.323
	h0.324v0.729h0.321v0.326h0.326v0.65h0.326v0.319h0.322v0.65h0.324v0.647h0.324v0.646h0.322v0.647h0.328v0.65h0.317v0.646h0.327
	v0.729h0.326v0.651h0.322v0.97h0.323v0.647h0.324v0.971h0.323v0.975h0.325v1.374h0.327v0.975h0.318v1.619h0.329v1.942h0.324v2.996
	h0.319v5.266h-0.319v3.238h-0.324v2.027h-0.329v1.292h-0.318v1.299h-0.327v1.3h-0.325v1.048h-0.323v0.978h-0.324v0.97h-0.323v0.648
	h-0.322v0.971h-0.326v0.648h-0.327v0.648h-0.317v0.726h-0.328v0.651h-0.322v0.646h-0.324v0.648h-0.324v0.646h-0.322v0.326h-0.326
	v0.647h-0.326v0.322h-0.321v0.648h-0.324v0.326h-0.322v0.402h-0.329v0.651h-0.318v0.322h-0.327v0.323h-0.323v0.324h-0.322v0.327
	h-0.324v0.322h-0.324v0.323h-0.321v0.324h-0.327v0.326h-0.322v0.325h-0.322v0.319h-0.33v0.325H494.1v0.327h-0.648v0.322h-0.326
	v0.321h-0.32v0.405h-0.648v0.327h-0.323v0.323h-0.646v0.322h-0.324v0.323h-0.65v0.324h0.329v0.973h0.321v0.646h0.324v0.974h0.322
	v0.974h0.324v0.728h0.323v0.973h0.325v0.972h0.323v0.969h0.32v0.652h0.326v0.972h0.322v1.055h0.326v0.967h0.319v0.65h0.33V323h0.322
	v0.972h0.322v0.65h0.327v0.971h0.321v1.053h0.324v0.972h0.324v0.646h0.322v0.975h0.323v0.974h0.327v0.968h0.318v0.733h0.329v0.965
	h0.322v0.978h0.324v0.648h0.321v0.97h0.326v0.971h0.326v1.055h0.322v0.648h0.324v0.97h0.324v0.971h0.322v0.977h0.328v0.645h0.317
	v0.974h0.327v1.054h0.326v0.646h0.322v0.972h0.323v0.975h0.324v0.971h0.323v0.646h0.325v1.054h0.327v0.975h0.318v0.645h0.329v0.977
	h0.324v0.971h0.319v0.969h0.324v0.651h0.328v1.053h0.322v0.97h0.322v0.973h0.322v0.646h0.326v0.971h0.328v0.975h0.322v0.729h0.324
	v0.973h0.323v0.971h0.327v0.323h-25.275v-0.646h-0.321v-0.975h-0.319V360.5h-0.324v-1.056h-0.325v-0.97h-0.326v-0.648h-0.324v-0.968
	h-0.322v-0.975h-0.325v-0.646h-0.324v-1.053h-0.32v-0.975h-0.331v-0.968h-0.321v-0.648h-0.321v-0.977h-0.322v-0.973h-0.329v-0.646
	h-0.324v-1.054h-0.322v-0.97h-0.326v-0.97h-0.321v-0.651h-0.324v-0.972h-0.323v-0.973h-0.325v-0.728h-0.323v-0.974h-0.327v-0.973
	h-0.322v-0.97h-0.326v-0.649h-0.317v-0.97h-0.328v-1.055h-0.324v-0.648h-0.32v-0.971h-0.325v-0.97h-0.322v-0.975h-0.326v-0.651
	h-0.322v-0.965h-0.329v-1.054h-0.322v-0.647h-0.323v-0.974h-0.324v-0.975h-0.322v-0.972H471.1v-0.646h-0.326v-1.053h-0.322v-0.971
	h-0.323v-0.65h-0.327V323h-0.319v-0.972h-0.324v-0.973h-0.326v-0.645h-0.327v-1.055h-0.321v-0.972h-0.323v-0.652h-0.322v-0.969
	h-15.55v45.681h-0.328v0.323h-23.004V243.46z M428.655,372.813h86.987l4.86,22.355h-91.848V372.813z M451.987,267.763v25.351h20.083
	v-0.325h1.945v-0.326h0.97v-0.323h0.646v-0.322h0.648v-0.402h0.65v-0.329h0.325v-0.324h0.323v-0.321h0.324v-0.325h0.321v-0.326
	h0.326v-0.321h0.322v-0.322h0.324v-0.652h0.329v-0.322h0.322v-0.646h0.321v-0.646h0.321v-0.65h0.331v-1.052h0.32v-0.975h0.324
	v-1.943h0.325v-5.591h-0.325v-1.614h-0.324v-1.057h-0.32v-0.645h-0.331v-0.651h-0.321v-0.646h-0.321v-0.323h-0.322v-0.327h-0.329
	v-0.322h-0.324v-0.323h-0.322v-0.323h-0.326v-0.328h-0.321v-0.318h-0.647v-0.328h-0.325v-0.32h-0.65v-0.408h-0.966v-0.324h-0.973
	v-0.321h-1.947v-0.323H451.987z"/>
<path fill="#454F58" d="M565.135,240.625h2.268v0.325h4.535v0.325h1.938v0.32h1.625v0.324h1.293v0.324h0.977v0.327h0.968v0.323h0.97
	v0.326h0.974v0.319h0.649v0.328h0.649v0.323h0.649v0.324h0.645v0.322h0.649v0.322h0.648v0.329h0.649v0.319h0.318v0.324h0.648v0.325
	h0.647v0.325h0.327v0.323h0.328v0.322h0.644v0.326h0.327v0.325h0.322v0.323h0.647v0.326h0.323v0.322h0.325v0.318h0.323v0.328h0.322
	v0.325h0.325v0.323h0.319v0.321h0.33v0.327h0.321v0.324h0.329v0.322h0.318v0.323h0.325v0.327h0.325v0.322h0.326v0.325h0.319v0.646
	h0.326v0.326h0.322v0.32h0.324v0.329h0.327v0.646h0.32v0.323h0.325v0.647h0.321v0.325h0.326v0.648h0.324v0.322h0.321v0.649h0.327
	v0.323h0.327v0.649h0.316v0.648h0.329v0.324h0.322v0.647h0.323v0.646h0.327v0.649h0.319v0.646h0.326v0.648h0.322v0.648h0.323v0.973
	h0.326v0.646h0.327v0.975h0.322v0.646h0.323v0.971h0.325v0.647h0.326v1.296h-0.651v0.328h-1.299v0.323h-0.972v0.323h-0.97v0.322
	h-1.295v0.327h-0.973v0.323h-0.973v0.322h-0.972v0.324h-1.294v0.326h-0.969v0.325h-0.98v0.32h-1.29v0.324h-0.974v0.323h-0.972v0.328
	h-0.972v0.32h-1.295v0.325h-0.973v0.323h-0.972v0.326h-1.294v0.32h-0.976v0.324h-0.973v0.327h-0.321v-0.327h-0.326v-0.645h-0.326
	v-0.975h-0.322v-0.648h-0.322v-0.647h-0.325v-0.646h-0.32v-0.65h-0.331v-0.646h-0.316v-0.327h-0.33v-0.646h-0.318v-0.323h-0.328
	v-0.646h-0.323v-0.328h-0.324v-0.32h-0.323v-0.329h-0.322v-0.647h-0.327v-0.322h-0.321v-0.324h-0.65v-0.324h-0.326v-0.323h-0.32
	v-0.323h-0.323v-0.325h-0.648v-0.324h-0.326v-0.325h-0.648v-0.322h-0.968v-0.323h-0.974V264.6h-2.266v-0.323h-1.625v0.323h-2.59
	v0.326h-1.294v0.323h-0.972v0.322h-0.646v0.325h-0.653v0.324h-0.649v0.325h-0.322v0.323h-0.646v0.323h-0.326v0.324h-0.32v0.324
	h-0.328v0.322h-0.319v0.324h-0.33v0.323h-0.319v0.329h-0.326v0.32h-0.323v0.328h-0.323v0.646h-0.325v0.323h-0.32v0.646h-0.326v0.327
	h-0.324v0.646h-0.326v0.324h-0.321v0.651h-0.327v0.645h-0.321v0.651h-0.322v0.646h-0.327v0.649h-0.321v0.972H551.2v0.646h-0.324
	v0.971h-0.327v0.976h-0.316v0.972h-0.329v1.295h-0.319v1.296h-0.327v1.297h-0.323v1.616h-0.322v1.946h-0.325v2.27h-0.323v2.915
	h-0.321v5.506h-0.332v7.453h0.332v5.185h0.321v2.592h0.323v2.264h0.325v1.619h0.322v1.624h0.323v1.292h0.327v1.298h0.319v0.972
	h0.329v0.972h0.316v0.973h0.327v0.648h0.324v0.973h0.326v0.648h0.321v0.648h0.327v0.647h0.322v0.648h0.321v0.646h0.327v0.648h0.321
	v0.648h0.326v0.328h0.324v0.645h0.326v0.325h0.32v0.645h0.325v0.323h0.323v0.325h0.323v0.325h0.326v0.645h0.319v0.326h0.33v0.324
	h0.319v0.324h0.328v0.324h0.32v0.324h0.326v0.322h0.646v0.323h0.322v0.327h0.649v0.323h0.324v0.322h0.646v0.326h0.978v0.324h0.97
	v0.323h1.947v0.322h3.239v-0.322h1.618v-0.323h1.297v-0.324h0.646v-0.326h0.65v-0.322h0.646v-0.323h0.648v-0.327h0.323v-0.323h0.32
	v-0.322h0.326v-0.324h0.328v-0.324h0.322v-0.324h0.321v-0.324h0.327v-0.326h0.322v-0.321h0.323v-0.323h0.324v-0.325h0.323v-0.648
	h0.328v-0.319h0.318v-0.65h0.33v-0.322h0.316v-0.65h0.331v-0.648h0.32v-0.648h0.325v-0.646h0.322v-0.648h0.322v-0.647h0.326v-0.973
	h0.326v-0.324h1.294v0.324h1.295v0.324h1.298v0.319h0.975v0.329h1.292v0.323h1.294v0.324h0.977v0.325h1.296v0.323h1.29v0.322h0.98
	v0.324h1.295v0.328h1.292v0.32h0.973v0.328h1.293v0.32h1.3v0.328h0.973v0.322h1.291v0.322h1.299v0.325h0.651v1.293h-0.326v0.97
	h-0.325v0.65h-0.323v0.973h-0.322v0.646h-0.327v0.973h-0.326v0.65h-0.323v0.646h-0.322v0.649h-0.326v0.646h-0.319v0.973h-0.327
	v0.324h-0.323v0.646h-0.322v0.651h-0.329v0.649h-0.316v0.648h-0.327v0.322h-0.327v0.65h-0.321v0.322h-0.324v0.646h-0.326v0.324
	h-0.321v0.647h-0.325v0.324h-0.32v0.649h-0.327v0.323h-0.324v0.325h-0.322v0.647h-0.326v0.323h-0.319v0.325h-0.326v0.324h-0.325
	v0.323h-0.325v0.329h-0.318v0.32h-0.329v0.647H591.7v0.326h-0.33v0.322h-0.319v0.325h-0.325v0.323h-0.646v0.324h-0.325v0.324h-0.323
	v0.322h-0.325v0.325h-0.322v0.32h-0.322v0.326h-0.654v0.321h-0.316v0.327h-0.328v0.324h-0.649v0.322h-0.325v0.326h-0.648v0.326
	h-0.318v0.319h-0.649v0.324h-0.648v0.328h-0.649v0.322h-0.325v0.322H582.3v0.323h-0.646v0.325h-0.973v0.321h-0.647v0.326h-0.971
	v0.324h-0.646v0.324h-1.296v0.321h-0.976v0.327h-1.294v0.324h-1.297v0.323h-1.946v0.323h-3.56v0.323h-4.862v-0.323h-3.24v-0.323
	h-1.942v-0.323h-1.294v-0.324h-1.299v-0.327h-0.969v-0.321h-0.977V360.5h-0.97v-0.324h-0.971v-0.326h-0.65v-0.321h-0.644v-0.325
	h-0.648v-0.323h-0.65v-0.322h-0.647v-0.322h-0.645v-0.328h-0.332v-0.324h-0.645v-0.319h-0.649v-0.326h-0.321v-0.326h-0.652v-0.322
	h-0.322v-0.324h-0.647v-0.327h-0.325v-0.321h-0.323v-0.326h-0.325v-0.32h-0.648v-0.325h-0.321v-0.322h-0.323v-0.324h-0.327v-0.324
	h-0.317v-0.323h-0.332v-0.325h-0.316v-0.322h-0.329v-0.326h-0.321v-0.322h-0.321v-0.325h-0.331v-0.32h-0.322v-0.329h-0.322v-0.323
	h-0.323v-0.324h-0.325v-0.325h-0.322v-0.323h-0.326v-0.324h-0.323v-0.648h-0.326v-0.323h-0.322v-0.325h-0.327v-0.648h-0.319v-0.321
	h-0.326v-0.326h-0.322v-0.646h-0.325v-0.324h-0.322v-0.646h-0.324v-0.326h-0.322v-0.648h-0.328v-0.648h-0.322v-0.323h-0.322v-0.651
	h-0.323v-0.646h-0.324v-0.645h-0.324v-0.328h-0.324v-0.648h-0.322v-0.646h-0.328v-0.647h-0.324v-0.647h-0.326v-0.648h-0.322v-0.65
	h-0.323v-0.97h-0.325v-0.648h-0.317v-0.65h-0.329v-0.97h-0.323v-0.648h-0.319v-0.97h-0.326v-0.973h-0.326v-0.969h-0.329v-0.975
	h-0.315v-0.973h-0.328v-0.972h-0.322v-1.295h-0.326v-0.975h-0.325v-1.294h-0.323v-1.622h-0.322v-1.298h-0.326v-1.618h-0.326v-1.94
	h-0.319v-2.271h-0.324v-2.595h-0.324v-3.562h-0.325v-15.874h0.325v-3.564h0.324v-2.593h0.324v-2.265h0.319v-1.946h0.326v-1.617
	h0.326v-1.296h0.322v-1.298h0.323v-1.295h0.325v-1.298h0.326v-0.969h0.322v-0.976h0.328v-0.972h0.315v-0.97h0.329v-0.973h0.326
	v-0.651h0.326v-0.967h0.319v-0.652h0.323v-0.971h0.329v-0.647h0.317v-0.648h0.325v-0.649h0.323v-0.646h0.322v-0.649h0.326v-0.646
	h0.324v-0.649h0.328v-0.648h0.322v-0.322h0.324v-0.649h0.324v-0.646h0.324v-0.324h0.323v-0.647h0.322v-0.648h0.322v-0.327h0.328
	v-0.322h0.322v-0.647h0.324v-0.325h0.322v-0.646h0.325v-0.324h0.322v-0.325h0.326v-0.647h0.319v-0.323h0.327v-0.326h0.322v-0.319
	h0.326v-0.329h0.323v-0.646h0.326v-0.321h0.322v-0.324h0.325v-0.325h0.323v-0.322h0.322v-0.327h0.322v-0.323h0.331v-0.322h0.321
	v-0.324h0.321v-0.327h0.329v-0.321h0.648v-0.323h0.317v-0.325h0.327v-0.328h0.323v-0.318h0.321v-0.322h0.648v-0.326h0.325v-0.323
	h0.323v-0.325h0.65v-0.326h0.322v-0.322h0.648v-0.323h0.326v-0.325h0.646v-0.325h0.324v-0.324h0.645v-0.319h0.653v-0.329h0.648
	v-0.322h0.646v-0.322h0.646v-0.324h0.646v-0.323h0.651v-0.328h0.975v-0.319h0.971v-0.326h0.647v-0.323h1.296v-0.327h0.973v-0.324
	h1.297v-0.324h1.615v-0.32h1.948v-0.325h4.213V240.625z M522.689,372.813h83.18v22.355h-83.18V372.813z"/>
<path fill="#454F58" d="M616.239,243.46h23.648v119.307h-23.648V243.46z"/>
<path fill="#454F58" d="M683.511,245.161h22.025v0.329h0.326v0.969h0.322v0.971h0.324v1.301h0.326v1.294h0.326v0.972h0.322v1.297
	h0.326v0.972h0.319v1.297h0.329v0.969h0.319v1.297h0.326v0.972h0.32v1.297h0.328v0.973h0.321v1.294h0.322v0.972h0.329v1.298h0.316
	v0.969h0.33v1.297h0.325v1.296h0.325v0.971h0.321v1.297h0.322v0.975h0.324v1.296h0.325v0.97h0.325v1.296h0.324v0.972h0.321v1.295
	h0.322v0.973h0.331v1.296h0.317v0.976h0.326v1.296h0.322v0.971h0.328v1.296h0.322v1.297h0.321v0.97h0.327v1.295h0.325v0.975h0.32
	v1.292h0.321v0.972h0.331v1.297h0.319v0.973h0.324v1.301h0.325v0.97h0.325v1.295h0.327v0.973h0.324v1.294h0.322v0.972h0.323v1.295
	h0.322v1.298h0.326v0.971h0.321v1.296h0.323v0.973h0.323v1.298h0.324v0.974h0.322v1.296h0.328v0.969h0.324v1.301h0.319v0.97h0.327
	v1.295h0.324v0.973h0.324v1.294h0.323v0.97h0.322v1.3h0.321v0.972h0.332v1.294h0.321v1.3h0.322v0.968h0.328v1.299h0.321v0.968h0.325
	v1.298h0.317v0.973h0.332v1.297h0.322v0.973h0.327v1.298h0.317v0.969h0.323v1.298h0.324v0.968h0.329v1.295h0.322v0.975h0.323v1.294
	h0.329v1.299h0.319v0.97h0.325v1.295h0.323v0.973h0.325v1.298h0.323v0.973h0.321v1.297h0.322v0.971h0.326v1.293h0.326v0.974h0.325
	v1.296h0.321v0.973h0.324v1.298h0.328v0.971h0.318v1.297h0.326v1.294h0.321v0.973h0.329v1.294h0.317v0.975h0.328v1.292h0.324v0.975
	h0.322v1.296h0.326v0.646h-24.625v-0.97h-0.321V360.5h-0.324v-0.972h-0.325v-0.971h-0.325v-1.294h-0.324v-0.975h-0.322v-1.299
	h-0.321v-0.968h-0.325v-0.972h-0.325v-1.296h-0.33v-0.975h-0.316v-0.973h-0.329v-1.296h-0.322v-0.973h-0.321v-0.972h-0.328v-1.292
	h-0.32v-0.973h-0.326v-1.298h-0.319v-0.974h-0.329v-0.968h-0.319v-1.298h-0.326v-0.972h-0.322v-0.974h-0.326v-1.296h-0.326v-0.971
	h-0.324v-0.975h-0.322v-1.295h-0.326v-0.968h-0.322v-0.325h-24.298v0.97h-0.324v1.297h-0.324v0.972h-0.322v1.295h-0.328v1.296
	h-0.322v1.296h-0.324v0.971h-0.321v1.297h-0.326v1.298h-0.324v1.295h-0.32v1.299h-0.328v0.968h-0.322v1.296h-0.323v1.298h-0.322
	v1.296h-0.331v0.977h-0.32v1.294h-0.325v1.295h-0.32v1.292h-0.322v0.975h-0.326v1.299h-0.329v1.294h-0.319v1.292h-0.328v1.296
	h-0.317v0.975h-0.323v0.646h-22.359v-0.97h0.325V360.5h0.326v-1.297h0.323v-0.968h0.321v-1.298h0.323v-0.973h0.323v-1.295h0.324
	v-0.972h0.324v-1.295h0.326v-0.974h0.324v-1.297h0.324v-1.296h0.322v-0.974h0.326v-1.296h0.327v-0.97h0.323v-1.295h0.32v-0.975
	h0.321v-1.297h0.324v-0.968h0.326v-1.298h0.326v-1.295h0.319v-0.973h0.33v-1.296h0.321v-0.973h0.323v-1.295h0.322v-0.974h0.326
	v-1.292h0.322v-0.971h0.329v-1.301h0.321v-1.295h0.322v-0.972h0.319v-1.295h0.331v-0.975h0.322v-1.294h0.324v-0.973h0.323v-1.298
	h0.322v-0.973h0.327v-1.295h0.323v-1.298h0.324v-0.969h0.326v-1.296h0.32v-0.971h0.323v-1.298h0.327v-0.975h0.324v-1.29h0.321
	v-0.971h0.326v-1.301h0.321v-1.295h0.327v-0.972h0.321v-1.297h0.325v-0.97h0.323v-1.299h0.324v-0.973h0.322v-1.292h0.324v-0.977
	h0.322v-1.294h0.326V297h0.322v-0.972h0.323v-1.297h0.329v-0.972h0.319v-1.298h0.329v-0.969h0.321v-1.295h0.325v-0.975h0.323v-1.295
	h0.326v-1.298h0.322v-0.974h0.326v-1.291h0.322v-0.974h0.327v-1.296h0.323v-0.973h0.317v-1.298h0.328v-0.969h0.319v-1.297h0.329
	v-1.298h0.326v-0.97h0.322v-1.297h0.32v-0.97h0.325v-1.296h0.32v-0.973h0.331v-1.298h0.322v-0.973h0.323v-1.295h0.322v-1.296h0.328
	v-0.971h0.32v-1.295h0.324v-0.975h0.326v-1.295h0.321v-0.971h0.324v-1.296h0.322v-0.973h0.328v-1.296h0.322v-1.297h0.324v-0.969
	h0.324v-1.297h0.322v-0.972h0.323v-1.297h0.326v-0.972h0.324v-1.294h0.322v-0.975h0.324v-1.297h0.324v-0.969h0.328V245.161z
	 M650.461,372.813h89.015v22.355h-89.015V372.813z M693.226,288.898v0.972h-0.322v1.297h-0.321v0.973h-0.327v1.301h-0.323v1.292
	h-0.324v0.973h-0.326V297h-0.322v0.971h-0.323v1.296h-0.324v0.971h-0.32v1.298h-0.326v1.295h-0.328v0.972h-0.323v1.297h-0.325v0.974
	h-0.317v1.295h-0.329v1.295h-0.324v0.973h11.666v-0.324h-0.325v-0.969h-0.323v-1.296h-0.323v-1.299h-0.322v-0.973h-0.326v-1.291
	h-0.321v-0.978h-0.331v-1.292h-0.322v-0.977h-0.323v-1.295h-0.322v-1.291h-0.322v-0.975h-0.326v-1.297h-0.326v-0.971h-0.322v-1.296
	h-0.322v-1.297h-0.328v-0.972h-0.317v-1.297h-0.331v-0.65H693.226z"/>
<g>
	<path fill="#454F58" d="M65.196,358.133c2.721,3.109,5.957,6.021,9.714,8.742c3.752,2.719,8.028,4.988,12.823,6.799
		c4.791,1.815,9.908,2.72,15.349,2.72c4.917,0,9.646-0.776,14.182-2.331c4.529-1.554,8.548-3.752,12.044-6.605
		c3.5-2.847,6.279-6.471,8.355-10.878c2.07-4.403,3.107-9.454,3.107-15.156c0-8.025-2.271-14.182-6.799-18.455
		c-4.535-4.274-10.17-7.771-16.9-10.492c-6.74-2.72-14.123-5.108-22.15-7.188c-8.031-2.07-15.414-4.982-22.146-8.742
		c-6.739-3.754-12.373-8.742-16.904-14.96c-4.534-6.217-6.798-14.765-6.798-25.646c0-8.547,1.42-16.38,4.274-23.505
		c2.847-7.122,6.994-13.272,12.434-18.457c5.439-5.181,12.172-9.26,20.206-12.24c8.024-2.975,17.222-4.469,27.585-4.469
		c9.58,0,17.68,1.3,24.286,3.885c6.606,2.593,12.882,4.925,18.845,6.996c-2.075,3.884-4.02,8.682-5.827,14.375
		c-1.816,5.702-2.981,10.103-3.499,13.213h-4.662c-2.076-6.219-6.09-11.786-12.045-16.71c-5.963-4.917-13.346-7.381-22.148-7.381
		c-3.885,0-7.771,0.648-11.657,1.942c-3.884,1.3-7.38,3.242-10.489,5.826c-3.109,2.594-5.699,5.963-7.771,10.104
		c-2.076,4.147-3.109,9.069-3.109,14.766c0,8.293,2.264,14.705,6.801,19.233c4.529,4.535,10.162,8.099,16.9,10.685
		c6.734,2.594,14.117,4.857,22.149,6.8c8.026,1.943,15.409,4.663,22.147,8.161c6.732,3.497,12.366,8.353,16.902,14.57
		c4.529,6.217,6.801,14.765,6.801,25.644c0,7.517-1.621,14.9-4.859,22.15c-3.24,7.253-7.904,13.792-13.986,19.621
		c-6.091,5.828-13.405,10.361-21.954,13.6c-8.55,3.236-18.261,4.857-29.142,4.857c-11.918,0-21.893-1.166-29.92-3.497
		c-8.029-2.333-14.765-5.053-20.203-8.162c1.553-3.361,3.168-7.964,4.855-13.793c1.682-5.827,2.527-10.685,2.527-14.571h4.662
		C60.468,352.176,62.478,355.025,65.196,358.133z"/>
</g>
<path fill="#63222B" d="M101.784,382.628c-5.439,0-10.557-0.906-15.347-2.721c-4.796-1.81-9.071-4.081-12.823-6.8
	c-3.757-2.719-6.993-5.635-9.713-8.742c-2.72-3.108-4.731-5.957-6.022-8.548h-4.663c0,3.887-0.845,8.742-2.525,14.571
	c-1.688,5.828-3.305,10.43-4.857,13.793c5.439,3.107,12.174,5.828,20.205,8.161c8.025,2.33,18.001,3.496,29.919,3.496
	c3.351,0,6.579-0.172,9.71-0.479l-1.331-12.836C103.488,382.574,102.644,382.628,101.784,382.628z"/>
<path fill="#63222B" d="M99.458,205.725c3.887-1.294,7.771-1.942,11.656-1.942c8.805,0,16.187,2.464,22.148,7.381
	c5.956,4.924,9.968,10.492,12.045,16.708h4.663c0.517-3.107,1.681-7.509,3.497-13.21c1.808-5.695,3.752-10.491,5.828-14.376
	c-5.962-2.071-12.24-4.402-18.844-6.995c-6.607-2.585-14.706-3.885-24.287-3.885c-9.086,0-17.275,1.15-24.565,3.438l1.632,15.741
	C95.188,207.431,97.251,206.461,99.458,205.725z"/>
<path fill="#1E252C" d="M163.142,304.503c-4.537-6.216-10.171-11.075-16.903-14.57c-6.739-3.497-14.122-6.218-22.147-8.159
	c-8.032-1.942-15.414-4.208-22.149-6.8c-6.737-2.589-12.372-6.151-16.901-10.685c-4.535-4.529-6.799-10.941-6.799-19.234
	c0-5.694,1.031-10.619,3.107-14.765c2.071-4.143,4.661-7.511,7.771-10.104c0.571-0.476,1.171-0.906,1.768-1.337l-1.709-16.494
	c-0.147,0.053-0.3,0.097-0.447,0.151c-8.032,2.981-14.765,7.061-20.205,12.24c-5.44,5.185-9.586,11.335-12.434,18.456
	c-2.853,7.126-4.274,14.96-4.274,23.506c0,10.881,2.265,19.43,6.799,25.646c4.529,6.217,10.165,11.207,16.904,14.96
	c6.731,3.757,14.114,6.671,22.145,8.743c8.028,2.076,15.411,4.468,22.149,7.188c6.732,2.721,12.367,6.216,16.903,10.491
	c4.528,4.274,6.8,10.431,6.8,18.456c0,5.7-1.039,10.751-3.109,15.152c-2.076,4.411-4.856,8.034-8.354,10.88
	c-3.498,2.854-7.517,5.054-12.046,6.605c-2.913,1-5.917,1.641-8.989,1.997l1.324,12.778c6.021-0.775,11.626-2.131,16.797-4.091
	c8.548-3.234,15.864-7.768,21.953-13.599c6.084-5.827,10.746-12.365,13.988-19.621c3.234-7.248,4.857-14.631,4.857-22.149
	C169.94,319.269,167.669,310.721,163.142,304.503z"/>
</svg>
