<?xml version="1.0" encoding="utf-8"?>
<!-- Generator: Adobe Illustrator 16.0.0, SVG Export Plug-In . SVG Version: 6.00 Build 0)  -->
<!DOCTYPE svg PUBLIC "-//W3C//DTD SVG 1.1//EN" "http://www.w3.org/Graphics/SVG/1.1/DTD/svg11.dtd">
<svg version="1.1" id="Layer_1" xmlns="http://www.w3.org/2000/svg" xmlns:xlink="http://www.w3.org/1999/xlink" x="0px" y="0px"
	 width="792px" height="612px" viewBox="0 0 792 612" enable-background="new 0 0 792 612" xml:space="preserve">
<path fill="#A9262B" d="M184.767,242.469h24.313v122.629h-24.313V242.469z"/>
<path fill="#A9262B" d="M228.128,244.217h24.978v0.666h0.331v0.333h0.332v0.669h0.331v0.664h0.336v0.669h0.334v0.667h0.332v0.66
	h0.332v0.669h0.334v0.664h0.332v0.668h0.332v0.664h0.334v0.668h0.332v0.667h0.332v0.665h0.334v0.667h0.332v0.664h0.337v0.667h0.332
	v0.665h0.33v0.666h0.336v0.667h0.334v0.333h0.329v0.663h0.334v0.67h0.335v0.665h0.332v0.667h0.331v0.664h0.335v0.667h0.332v0.664
	h0.332v0.666h0.334v0.666h0.336v0.665h0.332v0.669h0.33v0.664h0.332v0.667h0.335v0.665h0.336v0.666h0.332v0.665h0.332v0.671h0.334
	v0.666h0.329v0.664h0.337v0.333h0.329v0.664h0.334v0.667h0.335v0.665h0.331v0.669h0.332v0.663h0.336v0.668h0.335v0.664h0.331v0.667
	h0.332v0.664h0.332v0.666h0.334v0.667h0.332v0.665h0.334v0.669h0.332v0.662h0.332v0.669h0.336v0.664h0.332v0.667h0.334v0.663h0.328
	v0.333h0.335v0.67h0.334v0.665h0.332v0.666h0.336v0.666h0.328v0.666h0.339v0.664h0.327v0.669h0.336v0.665h0.332v0.665h0.334v0.665
	h0.335v0.664h0.331v0.67h0.332v0.664h0.334v0.668h0.332v0.664h0.332v0.668h0.339v0.665h0.327v0.666h0.337v0.332h0.331v0.666h0.335
	v0.666h0.331v0.669h0.328v0.666h0.336v0.664h0.334v0.666h0.332v0.666h0.332v0.665h0.336v0.668h0.33v0.668h0.336v0.663h0.334v0.665
	h0.332v0.667h0.332v0.665h0.332v0.667h0.338v0.666h0.328v0.667h0.334v0.665h0.333v0.336h0.331v0.663h0.337v0.668h0.332v0.662h0.335
	v0.669h0.331v0.668h0.335v0.666h0.331v-67.271h21.977v120.88h-21.645v-0.332h-0.332V364.1h-0.331v-0.669h-0.335v-0.664h-0.331V362.1
	h-0.335v-0.664h-0.332v-0.333h-0.337v-0.664h-0.331v-0.67h-0.333v-0.662h-0.334v-0.669h-0.328v-0.668h-0.338v-0.666h-0.332v-0.662
	h-0.332v-0.664h-0.332v-0.668h-0.334v-0.665h-0.336v-0.667h-0.33v-0.664h-0.336v-0.669h-0.332v-0.667h-0.332v-0.665h-0.334v-0.667
	h-0.336v-0.667h-0.328v-0.666h-0.331v-0.331h-0.335v-0.667h-0.331v-0.664h-0.337v-0.666h-0.327v-0.665h-0.339v-0.668h-0.332v-0.665
	h-0.332v-0.669h-0.334v-0.665h-0.332v-0.662h-0.331v-0.67h-0.335v-0.664h-0.334v-0.667h-0.332v-0.663h-0.336v-0.668h-0.327v-0.664
	h-0.339v-0.669h-0.328v-0.665h-0.336v-0.668h-0.332v-0.668h-0.334v-0.33h-0.335v-0.667h-0.328v-0.666h-0.334v-0.663h-0.332v-0.666
	h-0.336v-0.667h-0.332v-0.666h-0.332v-0.666h-0.334v-0.665h-0.332v-0.666h-0.334v-0.666h-0.332v-0.665h-0.332v-0.669h-0.331v-0.664
	h-0.335v-0.667h-0.336v-0.665h-0.332v-0.668h-0.331v-0.663h-0.335v-0.668h-0.334v-0.332h-0.329v-0.666h-0.337v-0.665h-0.329v-0.67
	h-0.334v-0.664h-0.332v-0.667h-0.332v-0.664h-0.336v-0.669h-0.335v-0.663h-0.332v-0.667h-0.33v-0.666h-0.332v-0.667h-0.336v-0.665
	h-0.334v-0.666h-0.332v-0.667h-0.332v-0.666h-0.335v-0.663h-0.331v-0.668h-0.332v-0.663h-0.335v-0.339h-0.334v-0.662h-0.329v-0.669
	h-0.334v-0.662h-0.336v-0.668h-0.33v-0.663h-0.332v-0.669h-0.337v-0.665h-0.332v-0.667h-0.334v-0.666h-0.332v-0.667h-0.332v-0.665
	h-0.334v-0.667h-0.332v-0.665h-0.332v-0.663h-0.334v-0.668h-0.332v-0.668h-0.332v-0.665h-0.334v-0.666H254.1v-0.334h-0.331v-0.662
	h-0.332V297.5h-0.331v-0.664h-0.336v-0.668h-0.334v-0.664h-0.332v-0.669h-0.332v-0.666h-0.335v-0.665h-0.331v-0.668h-0.332v-0.664
	h-0.332v72.926h-22.314V244.217z M228.128,375.421h85.498V398.4h-85.498V375.421z"/>
<path fill="#231A25" d="M317.05,375.421h108.723V398.4H317.05V375.421z M342.855,242.635h71.929v24.976h-47.619v21.895h37.965
	v23.976h-37.633v0.334h-0.332v26.31h48.953v24.972h-73.263V242.635z"/>
<path fill="#231A25" d="M435.526,242.469h46.959v0.335h2.995v0.33h1.995v0.334h1.67v0.336h0.994v0.333h1.335v0.329h0.993v0.337
	h0.671v0.333h0.998v0.415h0.664v0.334h0.669v0.332h0.998v0.332h0.332v0.334h0.666v0.335h0.669v0.333h0.66v0.334h0.34v0.332h0.664
	v0.328h0.332v0.336h0.332v0.333h0.666v0.333h0.331v0.331h0.331v0.335h0.335v0.333h0.332v0.332h0.663v0.419h0.339v0.329h0.332v0.335
	h0.331v0.333h0.335v0.662h0.331v0.336h0.333v0.334h0.334v0.333h0.332v0.334h0.331v0.664h0.336v0.331h0.328v0.333h0.338v0.667h0.332
	v0.332h0.332v0.75h0.332v0.336h0.334v0.668h0.335v0.328h0.332v0.669h0.334v0.665h0.332v0.665h0.332v0.666h0.336v0.667h0.326v0.665
	h0.338v0.75h0.334v0.669h0.332v0.998h0.332v0.665h0.334v0.998h0.332v1.001h0.334v1.412h0.336v1.001h0.328v1.664h0.335v1.997h0.335
	v3.079h0.328v5.413h-0.328v3.328h-0.335v2.083h-0.335v1.329h-0.328v1.334h-0.336v1.334h-0.334v1.079h-0.332v1.001h-0.334v0.998
	h-0.332v0.669h-0.332v0.995h-0.334v0.669h-0.338v0.666h-0.326v0.745h-0.336v0.671h-0.332v0.662h-0.332v0.667h-0.334v0.666h-0.332
	v0.335h-0.335v0.663h-0.334v0.333h-0.332v0.666h-0.332v0.334h-0.332v0.415h-0.338v0.67h-0.328v0.331h-0.336v0.332h-0.331v0.333
	h-0.332v0.336h-0.334v0.332h-0.333v0.332h-0.331v0.333h-0.335v0.335h-0.331v0.334h-0.332v0.33h-0.339v0.333h-0.327v0.335h-0.668
	v0.333h-0.335v0.329h-0.331v0.417h-0.667v0.335h-0.33v0.333h-0.664v0.333h-0.334v0.331h-0.67v0.333h0.34v0.999h0.33v0.665h0.334v1
	h0.332v1.001h0.332v0.746h0.33v1.001h0.336v0.999h0.331v0.997h0.331v0.669h0.335v0.998h0.332v1.084h0.336v0.995h0.327v0.667h0.339
	v0.999h0.332v0.999h0.331v0.669h0.335v0.998h0.331v1.082h0.333v0.999h0.334v0.665h0.332v1h0.331v1.001h0.336v0.996h0.328v0.752
	h0.338v0.993h0.332v1.003h0.332v0.667h0.332v0.997h0.334v0.999h0.335v1.083h0.332v0.666h0.334v0.998h0.332v0.998h0.332v1.003h0.336
	v0.662h0.326v1h0.338v1.081h0.334v0.669h0.332v0.996h0.332v1.003h0.334v0.998h0.332v0.663h0.334v1.084h0.336v1.001h0.328v0.663
	h0.335v1.002h0.335v0.998h0.328v0.996h0.335v0.67h0.336v1.081h0.331v0.996h0.333v1.001h0.329v0.665h0.337v0.999h0.335v1.001h0.332
	v0.747h0.334v0.999h0.332v1h0.334v0.332h-25.977v-0.665h-0.331v-1.002h-0.327v-0.664h-0.335v-1.085h-0.333v-0.996h-0.336v-0.666
	h-0.334v-0.997h-0.332v-1.001h-0.332v-0.664h-0.334v-1.081h-0.328v-1.004h-0.34v-0.993h-0.331v-0.667h-0.331v-1.002h-0.331v-1
	h-0.337v-0.664h-0.335v-1.084h-0.331v-0.998h-0.335v-0.996h-0.328v-0.67h-0.335v-0.996h-0.331v-0.999h-0.336v-0.751h-0.33v-1h-0.337
	v-0.999h-0.332v-0.997h-0.334v-0.667h-0.327v-0.998h-0.336v-1.084h-0.335v-0.665h-0.328v-0.999h-0.335v-0.997h-0.331v-1h-0.335
	v-0.67h-0.332v-0.993h-0.34V332.3h-0.332v-0.665h-0.33v-1.001h-0.332v-1h-0.332v-0.999h-0.334v-0.665h-0.334v-1.082h-0.332v-0.998
	h-0.332v-0.669h-0.338v-0.999h-0.328v-0.999h-0.332v-0.999h-0.336v-0.663h-0.336v-1.084h-0.331v-0.998h-0.332v-0.669h-0.331v-0.997
	h-15.983v46.953h-0.336v0.332h-23.645V242.469z M435.526,375.421h89.409l4.995,22.979h-94.404V375.421z M459.507,267.448v26.056
	h20.644v-0.334h2v-0.334h0.998v-0.332h0.663v-0.332h0.666v-0.415h0.667v-0.336h0.336v-0.333h0.331v-0.332h0.335v-0.333h0.328v-0.334
	h0.335v-0.332h0.331v-0.332h0.335v-0.668h0.337v-0.333h0.331v-0.664h0.331v-0.665h0.331v-0.666h0.34v-1.083h0.328v-1.001h0.334
	v-1.996h0.332v-5.746h-0.332v-1.661h-0.334v-1.085h-0.328v-0.663h-0.34v-0.669h-0.331v-0.665h-0.331v-0.332h-0.331v-0.335h-0.337
	v-0.332h-0.335v-0.332h-0.331v-0.333h-0.335v-0.337h-0.328v-0.327h-0.666v-0.337h-0.336v-0.329h-0.667v-0.419h-0.993v-0.333h-0.999
	v-0.331h-2.005v-0.333H459.507z"/>
<path opacity="0.5" fill="#484F4F" d="M575.803,239.556h2.333v0.333h4.663v0.334h1.991v0.329h1.669v0.334h1.33v0.333h1.003v0.336
	h0.995v0.333h0.998v0.334h1.001v0.329h0.667v0.337h0.666v0.332h0.667v0.333h0.663v0.332h0.667v0.332h0.667v0.337h0.667v0.329h0.329
	v0.333h0.666v0.335h0.665v0.334h0.336v0.332h0.336v0.332h0.663v0.334h0.335v0.335h0.332v0.333h0.666v0.334h0.332v0.332h0.334v0.328
	h0.332v0.336h0.331v0.333h0.336v0.333h0.328v0.331h0.339v0.335h0.328v0.333h0.339v0.332h0.327v0.332h0.334v0.337h0.337v0.332h0.335
	v0.335h0.326v0.662h0.337v0.335h0.331v0.329h0.332v0.338h0.338v0.664h0.329v0.333h0.334v0.665h0.33v0.334h0.336v0.666h0.332v0.332
	h0.332v0.668h0.335v0.331h0.337v0.669h0.326v0.665h0.337v0.333h0.33v0.667h0.333v0.664h0.337v0.667h0.329v0.664h0.335v0.666h0.332
	v0.666h0.331v1.001h0.335v0.664h0.335v1h0.332v0.665h0.332v0.998h0.334v0.666h0.335v1.331h-0.669v0.337h-1.334v0.333h-0.998v0.332
	h-0.999v0.332h-1.33v0.335h-0.999v0.332h-1v0.332h-0.999v0.333h-1.329v0.335h-0.998v0.334h-1.006v0.33h-1.327v0.333h-1v0.333h-0.999
	v0.335h-0.999v0.33h-1.33v0.334h-1.001v0.333h-0.999v0.334h-1.33v0.331h-1.001v0.333h-0.999v0.335h-0.332v-0.335h-0.335v-0.664
	h-0.334v-1.001h-0.332v-0.665h-0.332v-0.666h-0.334v-0.664h-0.329v-0.668h-0.339v-0.664h-0.327v-0.335h-0.339v-0.664h-0.328v-0.333
	h-0.336v-0.664h-0.332v-0.337h-0.334v-0.329h-0.332v-0.338h-0.332v-0.666h-0.334v-0.332h-0.332v-0.333h-0.667v-0.333h-0.336v-0.333
	h-0.331v-0.332h-0.331v-0.334h-0.668v-0.333h-0.334v-0.333h-0.666v-0.331h-0.995v-0.333h-1.002v-0.336h-2.327v-0.332h-1.67v0.332
	h-2.662v0.336h-1.331v0.333h-0.997v0.331h-0.663v0.333h-0.672v0.333h-0.668v0.334h-0.33v0.332h-0.666v0.333h-0.334v0.333h-0.332
	v0.333h-0.336v0.332h-0.328v0.333h-0.338v0.333h-0.329v0.338h-0.335v0.329h-0.332v0.337h-0.332v0.664h-0.334v0.333h-0.329v0.664
	h-0.337v0.335h-0.332v0.664h-0.336v0.333h-0.332v0.669h-0.334v0.663h-0.332v0.668h-0.332v0.664h-0.335v0.667h-0.331v1h-0.335v0.665
	h-0.332v0.999h-0.335v1.002h-0.326v0.998h-0.338v1.331h-0.33v1.332h-0.336v1.333h-0.331v1.663h-0.332v1.999h-0.334v2.333h-0.332
	v2.995h-0.332v5.66h-0.34v7.66h0.34v5.327h0.332v2.664h0.332v2.328h0.334v1.666h0.332v1.667h0.331v1.329h0.336v1.336h0.33v0.998
	h0.338v0.998h0.326v0.999h0.335v0.666h0.332v0.999h0.335v0.669h0.331v0.665h0.335v0.666h0.332v0.666h0.332v0.665h0.334v0.666h0.332
	v0.666h0.336v0.336h0.332v0.664h0.337v0.333h0.329v0.663h0.334v0.332h0.332v0.334h0.332v0.333h0.335v0.664h0.329v0.335h0.338v0.333
	h0.328v0.333h0.336v0.335h0.332v0.333h0.334v0.332h0.666v0.332h0.33v0.337h0.668v0.331h0.332v0.333h0.666v0.333h1.003v0.335h0.998
	v0.33h2v0.333h3.33v-0.333h1.662v-0.33h1.333v-0.335h0.663v-0.333h0.671v-0.333h0.661v-0.331h0.668v-0.337h0.331v-0.332h0.331
	v-0.332h0.336v-0.333h0.336v-0.335h0.331v-0.333h0.332v-0.333h0.334v-0.335h0.332v-0.33h0.332v-0.334h0.334v-0.333h0.332v-0.666
	h0.336v-0.328h0.328v-0.668h0.339v-0.333h0.327v-0.667h0.339v-0.666h0.329v-0.666h0.334v-0.665h0.332v-0.666h0.332v-0.666h0.334v-1
	h0.335v-0.334h1.331v0.334h1.33v0.335h1.333v0.327h1.002v0.338h1.33v0.333h1.328v0.333h1.004v0.334h1.332v0.332h1.327v0.332h1.006
	v0.333h1.333v0.335h1.326v0.331h1.001v0.335h1.33v0.331h1.335v0.336h1v0.331h1.327v0.333h1.334v0.333h0.669v1.329h-0.335v0.997
	h-0.334v0.668h-0.332v1.001H613.1v0.664h-0.335v1.001h-0.335v0.668h-0.331v0.663h-0.332v0.667h-0.335v0.664h-0.329v0.999h-0.337
	v0.333h-0.333v0.665h-0.33v0.669h-0.337v0.665h-0.326v0.668h-0.337v0.332h-0.335v0.667h-0.332v0.332h-0.332v0.664h-0.336v0.333
	h-0.33v0.665h-0.334v0.333h-0.329v0.669h-0.338v0.331h-0.332v0.335h-0.331v0.665h-0.337v0.332h-0.326v0.335h-0.335v0.332h-0.337
	v0.333h-0.334v0.336h-0.327v0.331h-0.339v0.665h-0.328v0.335h-0.339v0.332h-0.328v0.333h-0.336v0.333h-0.663v0.335h-0.334v0.33
	h-0.332v0.334h-0.334v0.334h-0.332v0.328h-0.332v0.334h-0.672v0.332h-0.326v0.336h-0.336v0.332h-0.666v0.331h-0.335v0.338h-0.666
	v0.334h-0.329v0.328h-0.667v0.335h-0.667v0.335h-0.667v0.333h-0.334v0.331h-0.666v0.333h-0.664v0.333h-0.999v0.331h-0.667v0.334
	h-0.998v0.333h-0.663v0.333h-1.333v0.331h-1.002v0.335h-1.33v0.334h-1.334v0.333h-1.999v0.333h-3.66v0.332h-4.996v-0.332h-3.331
	v-0.333h-1.996V364.1h-1.33v-0.334h-1.334v-0.335h-0.995V363.1h-1.005v-0.333h-0.998v-0.333h-0.998V362.1h-0.667v-0.331h-0.661
	v-0.333h-0.668v-0.333h-0.667v-0.331h-0.666v-0.333h-0.664v-0.335h-0.34v-0.335h-0.661v-0.328h-0.669v-0.334h-0.331v-0.338h-0.669
	v-0.331h-0.332v-0.332h-0.663v-0.336h-0.336v-0.332h-0.33v-0.334h-0.336v-0.328h-0.668v-0.334h-0.329v-0.334h-0.332v-0.33h-0.335
	v-0.335h-0.329v-0.333h-0.34v-0.333h-0.326v-0.332h-0.337v-0.335h-0.33v-0.332h-0.331v-0.333h-0.339v-0.331h-0.332v-0.336h-0.332
	v-0.333h-0.332v-0.332h-0.334v-0.335h-0.332v-0.332h-0.334v-0.333h-0.332v-0.667h-0.336v-0.331h-0.332v-0.336h-0.334v-0.666h-0.329
	v-0.331h-0.335v-0.334h-0.332v-0.664H544.5v-0.333h-0.332v-0.666h-0.334v-0.333h-0.33v-0.667h-0.338v-0.665h-0.332v-0.333h-0.332
	v-0.669h-0.331v-0.665h-0.335v-0.662h-0.332v-0.337h-0.33v-0.666h-0.336v-0.665h-0.335v-0.666h-0.332v-0.665h-0.335v-0.666h-0.332
	v-0.668h-0.331v-0.997h-0.335v-0.668h-0.326v-0.668h-0.34v-0.997h-0.332v-0.666h-0.329v-0.996h-0.334v-1h-0.335v-0.997h-0.337v-1
	h-0.326v-0.999h-0.335v-0.998h-0.332v-1.333h-0.337v-1.001h-0.334v-1.331h-0.332v-1.664h-0.331v-1.336h-0.335v-1.663h-0.335v-1.996
	h-0.328v-2.334h-0.334v-2.665h-0.332v-3.662h-0.336V293.17h0.336v-3.664h0.332v-2.665h0.334v-2.327h0.328v-2.003h0.335v-1.661h0.335
	v-1.331h0.331v-1.334h0.332v-1.331h0.334v-1.333h0.337v-0.997h0.332v-1.001h0.335v-0.999h0.326v-0.997h0.337v-0.999h0.335v-0.67
	h0.334v-0.993h0.329v-0.671h0.332v-0.998h0.34v-0.666h0.326v-0.666h0.335v-0.667h0.331v-0.664h0.332v-0.668h0.335v-0.663h0.332
	v-0.668h0.335v-0.667h0.336v-0.331h0.33v-0.667h0.332v-0.664h0.335v-0.333h0.331v-0.667h0.332v-0.665h0.332v-0.337h0.338v-0.332
	h0.33v-0.664h0.334v-0.335h0.332v-0.665h0.334v-0.333h0.332v-0.334h0.335v-0.665h0.329v-0.333h0.334v-0.336h0.332v-0.328h0.336
	v-0.338h0.332v-0.665h0.334v-0.33h0.332v-0.333h0.334v-0.335h0.332v-0.332h0.332v-0.337h0.332v-0.332h0.339v-0.332h0.331v-0.333
	h0.33v-0.335h0.337v-0.331h0.666v-0.333h0.329v-0.333h0.335v-0.336h0.332v-0.328h0.329v-0.332h0.668v-0.334h0.336v-0.333h0.33
	v-0.335h0.668v-0.334h0.331v-0.332h0.666v-0.332h0.335v-0.334h0.667v-0.335h0.333v-0.333h0.661v-0.329h0.672v-0.337h0.666v-0.332
	h0.663v-0.332h0.666v-0.333h0.664v-0.332h0.667v-0.337h1.001v-0.329h0.998v-0.334h0.668v-0.333h1.332v-0.336h0.999v-0.333h1.331
	v-0.334h1.662v-0.329h2.003v-0.334h4.327V239.556z M532.178,375.421h85.496V398.4h-85.496V375.421z"/>
<path opacity="0.5" fill="#484F4F" d="M628.332,242.469h24.309v122.629h-24.309V242.469z"/>
<path opacity="0.5" fill="#484F4F" d="M697.477,244.217h22.639v0.337h0.336v0.997h0.331v0.998h0.332v1.336h0.335v1.33h0.335v1h0.332
	v1.333h0.334v0.999h0.33v1.332h0.336v0.997h0.33v1.332h0.334v1h0.332v1.333h0.335v0.998h0.33v1.331h0.332v0.998h0.337v1.335h0.327
	v0.995h0.34v1.333h0.331v1.332h0.335v0.998h0.332v1.333h0.33v1.001h0.332v1.332h0.334v0.997h0.337v1.332h0.332v0.998h0.329v1.333
	h0.332v0.999h0.34v1.333h0.328v1.002h0.334v1.331h0.333v0.998h0.335v1.332h0.331v1.333h0.332v0.997h0.336v1.33h0.335v1.001h0.328
	v1.33h0.331v0.997h0.338v1.333h0.329v1h0.334v1.333h0.335v0.998h0.331v1.333h0.338v1h0.334v1.33h0.332v0.999h0.331v1.331h0.332
	v1.333h0.334v0.998h0.332v1.332h0.332v1h0.332v1.333h0.334v1.001h0.332v1.331h0.335v0.998h0.335v1.334h0.328v0.996h0.335v1.332
	h0.335v0.999h0.333v1.331h0.33v0.997h0.332v1.337h0.332v0.998h0.338v1.331h0.332v1.334h0.332v0.998h0.335v1.333h0.332v0.997h0.334
	v1.331h0.329v0.999h0.337v1.334h0.332v1h0.337v1.332h0.327v0.997h0.331v1.333h0.335v0.995h0.337v1.331h0.33v1.001h0.333v1.332h0.337
	v1.334h0.33v0.998h0.334v1.331h0.332v0.999h0.334v1.333h0.332v0.999h0.33v1.333h0.332v0.999h0.335v1.329h0.336v1.002h0.332v1.331
	h0.331v0.999h0.335v1.333h0.336v0.999h0.327v1.331h0.336v1.33h0.33v1h0.338v1.331h0.326v1.003h0.336v1.328h0.336v1h0.33v1.333h0.336
	v0.665h-25.312V364.1h-0.329v-1.333h-0.332v-0.998h-0.337v-0.997h-0.334v-1.331h-0.332v-1.003h-0.33v-1.334h-0.332v-0.996h-0.335
	v-0.998h-0.331v-1.332h-0.34v-1h-0.327v-1h-0.337v-1.332h-0.332v-1h-0.33v-0.998h-0.335v-1.329h-0.332v-0.999h-0.334v-1.333h-0.33
	v-1.001h-0.336v-0.995h-0.33v-1.334h-0.334v-1h-0.332v-0.998h-0.335v-1.333h-0.335v-1h-0.332v-1.001h-0.331v-1.331h-0.336v-0.995
	h-0.331v-0.333H694.81v0.996h-0.332v1.333h-0.336v0.998h-0.33v1.333h-0.337v1.333h-0.332v1.331h-0.334v0.998h-0.328v1.332h-0.336
	v1.333h-0.334v1.332h-0.332v1.334h-0.334v0.996h-0.332v1.331h-0.332v1.335h-0.332v1.332h-0.339v1.001h-0.33v1.331h-0.332v1.333
	h-0.332v1.326h-0.332v1.002h-0.334v1.335h-0.337v1.331h-0.331v1.328h-0.335v1.331h-0.326v1.002h-0.332v0.665h-22.982V364.1h0.334
	v-1.333h0.334v-1.331h0.332v-0.997h0.332v-1.332h0.334v-1.001h0.33v-1.33h0.334v-0.998h0.332v-1.333h0.335v-1h0.333v-1.332h0.335
	v-1.332h0.332v-1.002h0.334v-1.331h0.335v-0.997h0.332v-1.331h0.331v-1h0.332v-1.334h0.332v-0.995h0.335v-1.334h0.334v-1.33h0.33
	v-1.001h0.337v-1.332h0.331v-1.001h0.332v-1.332h0.332v-0.999h0.335v-1.329h0.331v-0.998h0.339V330.8h0.33v-1.331h0.33v-0.998h0.33
	v-1.333h0.34v-1.001h0.332v-1.331h0.332v-0.999h0.332v-1.334h0.33v-0.999h0.34v-1.331h0.331v-1.333h0.333v-0.997h0.334v-1.333h0.332
	v-0.998h0.331v-1.333h0.335v-1.001h0.335v-1.326h0.328v-0.999h0.335v-1.337h0.331v-1.33h0.336v-0.999h0.33v-1.332h0.337v-0.998
	h0.332v-1.334h0.33v-0.998h0.332v-1.331h0.335v-1.001h0.331v-1.332h0.335v-1.33h0.332v-1.001h0.331v-1.332h0.338v-0.998h0.329
	v-1.333h0.337v-0.997h0.331v-1.33h0.335v-1.002h0.331v-1.33h0.336v-1.334h0.33v-1h0.336v-1.327h0.33v-1h0.338v-1.333h0.332v-1h0.326
	v-1.333h0.335v-0.997h0.331v-1.333h0.337v-1.333h0.334v-0.998h0.332v-1.333h0.332v-0.997h0.332v-1.332h0.33v-0.999h0.339v-1.334
	h0.332v-1h0.332v-1.331h0.332v-1.332h0.334v-0.997h0.332v-1.331h0.334V262.2h0.336v-1.332h0.328v-0.997h0.334v-1.332h0.332v-1h0.337
	v-1.333h0.33v-1.332h0.336v-0.997h0.332v-1.332h0.332v-0.999h0.332v-1.333h0.334v-1h0.334v-1.33h0.332v-1.002h0.332v-1.332h0.332
	v-0.997h0.339V244.217z M663.506,375.421H755V398.4h-91.494V375.421z M707.461,289.173v0.997h-0.332v1.333h-0.33v1h-0.336v1.333
	h-0.33v1.33h-0.336v1.001h-0.334v1.332h-0.332v0.998H704.8v1.332h-0.332v0.998h-0.331v1.333h-0.336v1.331h-0.336v0.999h-0.332v1.333
	h-0.334v1h-0.328v1.331h-0.335v1.33H701.8v1.002h11.989v-0.333h-0.334v-0.998h-0.332v-1.331h-0.332v-1.334h-0.332v-1h-0.334v-1.329
	h-0.332v-1.003h-0.337v-1.328h-0.332v-1.003h-0.332v-1.331h-0.332v-1.329h-0.332v-1h-0.334v-1.335h-0.335v-0.998h-0.332v-1.331
	h-0.33v-1.332h-0.338v-0.999h-0.326v-1.333h-0.34v-0.666H707.461z"/>
<g opacity="0.5">
	<path fill="#484F4F" d="M61.953,360.333c2.795,3.196,6.122,6.191,9.983,8.986c3.856,2.796,8.251,5.129,13.179,6.989
		c4.925,1.865,10.185,2.796,15.776,2.796c5.054,0,9.915-0.799,14.577-2.397c4.656-1.597,8.787-3.855,12.38-6.789
		c3.596-2.926,6.453-6.651,8.586-11.182c2.129-4.525,3.195-9.717,3.195-15.576c0-8.249-2.334-14.576-6.989-18.97
		c-4.662-4.394-10.454-7.987-17.373-10.783c-6.926-2.794-14.514-5.254-22.765-7.389c-8.255-2.128-15.844-5.121-22.762-8.985
		c-6.928-3.856-12.719-8.986-17.375-15.376c-4.662-6.39-6.987-15.175-6.987-26.359c0-8.785,1.459-16.836,4.392-24.161
		c2.927-7.319,7.189-13.641,12.779-18.971c5.592-5.324,12.512-9.516,20.77-12.58c8.248-3.057,17.701-4.592,28.353-4.592
		c9.848,0,18.172,1.335,24.962,3.993c6.79,2.665,13.24,5.061,19.369,7.19c-2.134,3.992-4.132,8.923-5.99,14.776
		c-1.867,5.86-3.063,10.383-3.596,13.579h-4.792c-2.134-6.391-6.259-12.113-12.38-17.175c-6.128-5.053-13.716-7.586-22.765-7.586
		c-3.993,0-7.987,0.667-11.981,1.997c-3.993,1.336-7.587,3.332-10.783,5.988c-3.195,2.666-5.858,6.129-7.986,10.385
		c-2.135,4.262-3.195,9.323-3.195,15.176c0,8.524,2.326,15.115,6.989,19.77c4.655,4.66,10.445,8.322,17.371,10.981
		c6.922,2.666,14.51,4.993,22.767,6.99c8.248,1.996,15.837,4.792,22.763,8.386c6.92,3.594,12.711,8.586,17.374,14.978
		c4.653,6.39,6.988,15.175,6.988,26.356c0,7.726-1.667,15.313-4.993,22.766c-3.332,7.456-8.125,14.179-14.377,20.168
		c-6.259,5.99-13.778,10.651-22.565,13.978c-8.787,3.327-18.769,4.992-29.953,4.992c-12.249,0-22.501-1.197-30.751-3.594
		c-8.255-2.397-15.177-5.194-20.767-8.388c1.597-3.456,3.257-8.188,4.992-14.177c1.728-5.991,2.596-10.983,2.596-14.978h4.792
		C57.09,354.211,59.157,357.139,61.953,360.333z"/>
</g>
<path fill="#A9262B" d="M99.559,385.512c-5.591,0-10.851-0.933-15.776-2.796c-4.928-1.86-9.323-4.195-13.179-6.989
	c-3.861-2.796-7.188-5.791-9.983-8.988c-2.796-3.193-4.862-6.12-6.191-8.784h-4.792c0,3.994-0.868,8.986-2.595,14.977
	c-1.736,5.991-3.396,10.722-4.992,14.179c5.59,3.193,12.511,5.989,20.767,8.387c8.25,2.396,18.503,3.594,30.752,3.594
	c3.443,0,6.762-0.179,9.979-0.493l-1.367-13.191C101.309,385.454,100.441,385.512,99.559,385.512z"/>
<path fill="#A9262B" d="M97.167,203.684c3.995-1.33,7.989-1.997,11.981-1.997c9.05,0,16.637,2.533,22.765,7.587
	c6.122,5.061,10.246,10.784,12.381,17.173h4.792c0.531-3.195,1.728-7.719,3.595-13.579c1.858-5.853,3.856-10.783,5.991-14.777
	c-6.129-2.128-12.582-4.523-19.371-7.188c-6.79-2.658-15.115-3.994-24.961-3.994c-9.34,0-17.757,1.183-25.25,3.534l1.676,16.179
	C92.777,205.438,94.899,204.441,97.167,203.684z"/>
<path fill="#231A25" d="M162.623,305.212c-4.663-6.39-10.454-11.384-17.374-14.975c-6.926-3.597-14.515-6.391-22.764-8.388
	c-8.256-1.997-15.844-4.325-22.766-6.991c-6.925-2.658-12.716-6.32-17.371-10.98c-4.663-4.655-6.989-11.246-6.989-19.771
	c0-5.853,1.06-10.914,3.194-15.176c2.13-4.257,4.792-7.719,7.988-10.385c0.587-0.487,1.204-0.93,1.817-1.374l-1.757-16.953
	c-0.15,0.054-0.308,0.1-0.459,0.156c-8.256,3.063-15.176,7.257-20.768,12.581c-5.591,5.329-9.852,11.65-12.779,18.97
	c-2.933,7.326-4.394,15.376-4.394,24.161c0,11.184,2.328,19.971,6.989,26.36c4.655,6.391,10.447,11.519,17.373,15.377
	c6.92,3.862,14.508,6.855,22.762,8.985c8.251,2.135,15.84,4.593,22.767,7.389c6.919,2.795,12.711,6.389,17.373,10.783
	c4.655,4.393,6.989,10.72,6.989,18.97c0,5.859-1.067,11.05-3.195,15.576c-2.134,4.53-4.992,8.255-8.587,11.181
	c-3.594,2.934-7.725,5.194-12.38,6.79c-2.995,1.027-6.083,1.687-9.24,2.053l1.361,13.132c6.19-0.796,11.95-2.189,17.264-4.203
	c8.786-3.325,16.306-7.985,22.563-13.978c6.253-5.989,11.047-12.711,14.378-20.167c3.326-7.45,4.993-15.039,4.993-22.767
	C169.611,320.388,167.276,311.603,162.623,305.212z"/>
</svg>
