<?xml version="1.0" encoding="utf-8"?>
<!-- Generator: Adobe Illustrator 16.0.0, SVG Export Plug-In . SVG Version: 6.00 Build 0)  -->
<!DOCTYPE svg PUBLIC "-//W3C//DTD SVG 1.1//EN" "http://www.w3.org/Graphics/SVG/1.1/DTD/svg11.dtd">
<svg version="1.1" id="Layer_1" xmlns="http://www.w3.org/2000/svg" xmlns:xlink="http://www.w3.org/1999/xlink" x="0px" y="0px"
	 width="792px" height="612px" viewBox="0 0 792 612" enable-background="new 0 0 792 612" xml:space="preserve">
<g opacity="0.5">
	<path fill="#484F4F" d="M280.429,469.846c6.854,7.835,15.008,15.178,24.475,22.03c9.455,6.854,20.229,12.574,32.31,17.135
		c12.073,4.573,24.969,6.855,38.676,6.855c12.391,0,24.309-1.959,35.736-5.879c11.416-3.914,21.542-9.451,30.352-16.645
		c8.816-7.172,15.82-16.306,21.05-27.412c5.221-11.094,7.835-23.821,7.835-38.187c0-20.224-5.722-35.734-17.134-46.506
		c-11.43-10.771-25.628-19.581-42.59-26.437c-16.982-6.85-35.583-12.88-55.811-18.113c-20.238-5.218-38.843-12.556-55.804-22.028
		c-16.985-9.456-31.181-22.031-42.597-37.697c-11.429-15.665-17.13-37.203-17.13-64.622c0-21.537,3.578-41.274,10.768-59.232
		c7.175-17.943,17.626-33.442,31.33-46.509c13.709-13.052,30.675-23.329,50.919-30.84c20.221-7.494,43.396-11.259,69.509-11.259
		c24.143,0,44.552,3.273,61.197,9.789c16.646,6.532,32.461,12.407,47.486,17.627c-5.231,9.787-10.132,21.875-14.687,36.226
		c-4.576,14.366-7.511,25.456-8.813,33.289h-11.747c-5.232-15.667-15.345-29.696-30.352-42.106
		c-15.024-12.388-33.627-18.597-55.811-18.597c-9.788,0-19.581,1.637-29.374,4.896c-9.789,3.275-18.601,8.168-26.435,14.681
		c-7.833,6.536-14.361,15.027-19.58,25.459c-5.234,10.449-7.833,22.856-7.833,37.206c0,20.898,5.703,37.055,17.135,48.468
		c11.412,11.424,25.608,20.403,42.586,26.921c16.971,6.536,35.574,12.24,55.814,17.137c20.219,4.894,38.825,11.749,55.807,20.56
		c16.965,8.811,31.161,21.05,42.593,36.72c11.407,15.666,17.133,37.203,17.133,64.616c0,18.939-4.085,37.543-12.241,55.812
		c-8.167,18.279-19.919,34.761-35.246,49.444c-15.346,14.685-33.778,26.112-55.32,34.268c-21.542,8.156-46.014,12.238-73.433,12.238
		c-30.029,0-55.165-2.935-75.389-8.811c-20.239-5.877-37.208-12.734-50.913-20.563c3.914-8.473,7.984-20.072,12.239-34.756
		c4.235-14.688,6.364-26.926,6.364-36.718h11.75C268.508,454.837,273.574,462.014,280.429,469.846z"/>
</g>
<path fill="#A9262B" d="M372.625,531.573c-13.708,0-26.603-2.286-38.676-6.854c-12.082-4.561-22.857-10.285-32.31-17.135
	c-9.465-6.854-17.621-14.196-24.475-22.035c-6.854-7.829-11.919-15.005-15.178-21.536h-11.75c0,9.792-2.127,22.031-6.362,36.717
	c-4.256,14.688-8.326,26.285-12.239,34.761c13.705,7.829,30.672,14.683,50.912,20.561c20.224,5.873,45.362,8.811,75.391,8.811
	c8.441,0,16.578-0.438,24.466-1.209l-3.352-32.34C376.915,531.432,374.788,531.573,372.625,531.573z"/>
<path fill="#A9262B" d="M366.759,85.804c9.793-3.261,19.586-4.896,29.373-4.896c22.186,0,40.789,6.211,55.809,18.602
	c15.009,12.407,25.119,26.437,30.354,42.102h11.749c1.302-7.833,4.237-18.925,8.812-33.29c4.556-14.349,9.454-26.435,14.688-36.227
	c-15.025-5.217-30.846-11.089-47.489-17.622c-16.646-6.516-37.055-9.792-61.194-9.792c-22.897,0-43.533,2.899-61.901,8.663
	l4.11,39.665C355.997,90.104,361.2,87.661,366.759,85.804z"/>
<path fill="#231A25" d="M527.23,334.71c-11.431-15.664-25.627-27.907-42.593-36.712c-16.981-8.818-35.586-15.667-55.808-20.563
	c-20.241-4.896-38.842-10.604-55.813-17.138c-16.978-6.518-31.174-15.496-42.586-26.919c-11.432-11.413-17.135-27.571-17.135-48.469
	c0-14.349,2.599-26.757,7.831-37.205c5.221-10.436,11.746-18.923,19.583-25.459c1.438-1.195,2.951-2.279,4.454-3.369l-4.307-41.561
	c-0.369,0.133-0.755,0.245-1.126,0.382c-20.24,7.511-37.205,17.791-50.913,30.843c-13.708,13.063-24.154,28.562-31.331,46.506
	c-7.189,17.96-10.772,37.697-10.772,59.232c0,27.418,5.706,48.959,17.135,64.623c11.413,15.668,25.611,28.24,42.591,37.698
	c16.966,9.469,35.568,16.808,55.804,22.029c20.229,5.232,38.833,11.26,55.814,18.113c16.964,6.852,31.162,15.663,42.591,26.437
	c11.411,10.769,17.133,26.28,17.133,46.505c0,14.366-2.614,27.091-7.833,38.188c-5.23,11.106-12.237,20.237-21.052,27.41
	c-8.811,7.192-18.938,12.734-30.35,16.646c-7.342,2.519-14.913,4.135-22.652,5.033l3.336,32.193
	c15.177-1.951,29.296-5.367,42.325-10.305c21.539-8.151,39.975-19.577,55.315-34.268c15.331-14.683,27.083-31.162,35.25-49.44
	c8.154-18.265,12.241-36.87,12.241-55.814C544.363,371.916,538.639,350.378,527.23,334.71z"/>
</svg>
